<svg id="synthesizer" version="1.1" viewBox="0 0 128 128" xml:space="preserve" xmlns="http://www.w3.org/2000/svg"><style>.st1{fill:#fff}.st2{fill:#233e49}.st3{fill:#415e6d}.st4{fill:#324d5b}.st7{fill:#22b573}.st10{opacity:.5;fill:#fff}</style><circle cx="64" cy="64" r="64" fill="#fc8ba4"/><path class="st1" d="M78 115c-2.2 0-4-1.8-4-4s1.8-4 4-4 4 1.8 4 4-1.8 4-4 4zm0-6.1c-1.2 0-2.1 1-2.1 2.1 0 1.2 1 2.1 2.1 2.1 1.2 0 2.1-1 2.1-2.1 0-1.2-.9-2.1-2.1-2.1zM56.2 113.1c0-.4-.4-.8-1-.9l-1.9-.3c-.5-.1-1.1-.6-1.1-1.1l-.3-1.9c-.1-.5-.5-1-.9-1s-.8.4-.9 1l-.3 1.9c-.1.5-.6 1.1-1.1 1.1l-1.9.3c-.5.1-1 .5-1 .9s.4.8 1 .9l1.9.3c.5.1 1.1.6 1.1 1.1l.3 1.9c.1.5.5 1 .9 1s.8-.4.9-1l.3-2.1c.1-.5.6-1 1.1-1.1l1.8-.1c.7-.2 1.1-.5 1.1-.9zM60.4 17.1c0-.4-.4-.8-1-.9l-1.8-.2c-.5-.1-1.1-.6-1.1-1.1l-.4-1.9c-.1-.5-.5-1-.9-1s-.8.4-.9 1l-.3 1.9c-.1.5-.6 1.1-1.1 1.1l-1.9.3c-.5.1-1 .5-1 .9s.4.8 1 .9l1.9.3c.5.1 1.1.6 1.1 1.1l.3 1.9c.1.5.5 1 .9 1s.8-.4.9-1l.3-2.1c.1-.5.6-1 1.1-1.1l1.8-.1c.7-.2 1.1-.6 1.1-1zM32 32c-2.2 0-4-1.8-4-4s1.8-4 4-4 4 1.8 4 4-1.8 4-4 4zm0-6.1c-1.2 0-2.1 1-2.1 2.1 0 1.2 1 2.1 2.1 2.1 1.2 0 2.1-1 2.1-2.1 0-1.2-.9-2.1-2.1-2.1zM92 29c-2.2 0-4-1.8-4-4s1.8-4 4-4 4 1.8 4 4c-.1 2.2-1.8 4-4 4zm0-6.1c-1.2 0-2.1 1-2.1 2.1 0 1.2.9 2.1 2.1 2.1 1.2 0 2.1-1 2.1-2.1 0-1.2-1-2.1-2.1-2.1z"/><path class="st2" d="M113.7 16.7c.3 2.1 0 4-.8 5.6.5.6.9 1.1 1.4 1.7 1.2-2.1 1.8-4.8 1.4-7.6C114 5.2 99.8 4.1 95.4 4c-9.8-.2-17.7 2.5-23.4 8.1-7.1 7-8.7 16.6-8.7 19.7 0 .6.4 1 1 1s1-.4 1-1c0-2.9 1.4-11.8 8.1-18.2 5.3-5.3 12.7-7.8 22-7.6 15.1.3 17.9 7.6 18.3 10.7z"/><ellipse class="st3" cx="64.5" cy="35.4" rx="5.5" ry="5.6"/><path class="st2" d="M64.5 42c-3.6 0-6.5-3-6.5-6.6 0-3.7 2.9-6.6 6.5-6.6s6.5 3 6.5 6.6c0 3.6-2.9 6.6-6.5 6.6zm0-11.3c-2.5 0-4.5 2.1-4.5 4.6 0 2.6 2 4.6 4.5 4.6s4.5-2.1 4.5-4.6c0-2.5-2-4.6-4.5-4.6z"/><path class="st4" d="M72 38c0 1.6-1.3 3-3 3h-9c-1.6 0-3-1.3-3-3 0-1.6 1.3-3 3-3h9c1.7 0 3 1.3 3 3z"/><path class="st2" d="M69 42h-9c-2.2 0-4-1.8-4-4 0-2.3 1.8-4 4-4h9c2.2 0 4 1.8 4 4s-1.8 4-4 4zm-9-6c-1.1 0-2 .9-2 2 0 1.2.9 2 2 2h9c1.1 0 2-.9 2-2 0-1.2-.9-2-2-2h-9z"/><path class="st3" d="M127 97.4c0 2-1.6 3.6-3.6 3.6H4.6c-2 0-3.6-1.6-3.6-3.6V42.6c0-2 1.6-3.6 3.6-3.6h118.8c2 0 3.6 1.6 3.6 3.6v54.8z"/><path d="M111.1 60H16.3c-2 0-3.3 1.4-3.3 3.3V101h102V63.3c0-1.9-1.9-3.3-3.9-3.3z" fill="#eaeaea"/><path d="M115 62.5c0-1.4-.4-2.5-1.2-2.5H14.7c-.8 0-1.7 1.1-1.7 2.5v.1c0 1.4.9 2.5 1.7 2.5h99.1c.8-.1 1.2-1.2 1.2-2.6z" fill="#d4d6d6"/><path class="st2" d="M115 102H13c-.6 0-1-.4-1-1V63.3c0-2.5 1.8-4.3 4.3-4.3h95.8c2.4 0 3.9 1.7 3.9 4.3V101c0 .6-.4 1-1 1zm-101-2h100V63.3c0-2.3-1.4-2.3-1.9-2.3H16.3c-1.4 0-2.3.9-2.3 2.3V100z"/><path class="st4" d="M122.7 39H3.8c-2 0-3.8 1.7-3.8 3.5V54h126V42.5c0-1.8-1.4-3.5-3.3-3.5z"/><ellipse class="st7" cx="30" cy="47" rx="3" ry="3" transform="matrix(.08852 -.9961 .9961 .08852 -19.46 72.735)"/><path class="st2" d="M30.4 43c-2.2-.2-4.1 1.4-4.3 3.6-.2 2.2 1.4 4.1 3.6 4.3 2.2.2 4.1-1.4 4.3-3.6.2-2.1-1.4-4.1-3.6-4.3zm-.6 6c-1.1-.1-1.9-1.1-1.8-2.2.1-1.1 1.1-1.9 2.2-1.8 1.1.1 1.9 1.1 1.8 2.2-.1 1.1-1.1 1.9-2.2 1.8z"/><circle cx="10" cy="47" r="3" fill="#c1272d"/><path class="st2" d="M10 51c-2.2 0-4-1.8-4-4s1.8-4 4-4 4 1.8 4 4-1.8 4-4 4zm0-6c-1.1 0-2 .9-2 2s.9 2 2 2 2-.9 2-2-.9-2-2-2z"/><circle class="st7" cx="20" cy="47" r="3"/><path class="st2" d="M20 51c-2.2 0-4-1.8-4-4s1.8-4 4-4 4 1.8 4 4-1.8 4-4 4zm0-6c-1.1 0-2 .9-2 2s.9 2 2 2 2-.9 2-2-.9-2-2-2z"/><path fill="#c5ecff" d="M54 43h20v8H54z"/><path class="st2" d="M74 52H54c-.6 0-1-.4-1-1v-8c0-.6.4-1 1-1h20c.6 0 1 .4 1 1v8c0 .6-.4 1-1 1zm-19-2h18v-6H55v6z"/><circle class="st2" cx="117.5" cy="46.5" r="4.5"/><path class="st2" d="M18 60h8v22h-8z"/><path class="st2" d="M22 102c-.6 0-1-.4-1-1V62c0-.6.4-1 1-1s1 .4 1 1v39c0 .6-.4 1-1 1zM30 60h8v22h-8z"/><path class="st2" d="M34 102c-.6 0-1-.4-1-1V62c0-.6.4-1 1-1s1 .4 1 1v39c0 .6-.4 1-1 1zM42 60h8v22h-8z"/><path class="st2" d="M46 102c-.6 0-1-.4-1-1V62c0-.6.4-1 1-1s1 .4 1 1v39c0 .6-.4 1-1 1zM54 60h8v22h-8z"/><path class="st2" d="M58 102c-.6 0-1-.4-1-1V62c0-.6.4-1 1-1s1 .4 1 1v39c0 .6-.4 1-1 1zM66 60h8v22h-8z"/><path class="st2" d="M70 102c-.6 0-1-.4-1-1V62c0-.6.4-1 1-1s1 .4 1 1v39c0 .6-.4 1-1 1zM78 60h8v22h-8z"/><path class="st2" d="M82 102c-.6 0-1-.4-1-1V62c0-.6.4-1 1-1s1 .4 1 1v39c0 .6-.4 1-1 1zM90 60h8v22h-8z"/><path class="st2" d="M94 102c-.6 0-1-.4-1-1V62c0-.6.4-1 1-1s1 .4 1 1v39c0 .6-.4 1-1 1zM102 60h8v22h-8z"/><path class="st2" d="M106 102c-.6 0-1-.4-1-1V62c0-.6.4-1 1-1s1 .4 1 1v39c0 .6-.4 1-1 1z"/><path class="st2" d="M123.4 102H4.6C2.1 102 0 99.9 0 97.4V42.6C0 40.1 2.1 38 4.6 38h118.8c2.5 0 4.6 2.1 4.6 4.6v54.8c0 2.5-2.1 4.6-4.6 4.6zM4.6 40C3.2 40 2 41.2 2 42.6v54.8c0 1.4 1.2 2.6 2.6 2.6h118.8c1.4 0 2.6-1.2 2.6-2.6V42.6c0-1.4-1.2-2.6-2.6-2.6H4.6z"/><path class="st2" d="M101 44H82c-.6 0-1-.4-1-1s.4-1 1-1h19c.6 0 1 .4 1 1s-.4 1-1 1zM101 48H82c-.6 0-1-.4-1-1s.4-1 1-1h19c.6 0 1 .4 1 1s-.4 1-1 1zM101 52H82c-.6 0-1-.4-1-1s.4-1 1-1h19c.6 0 1 .4 1 1s-.4 1-1 1z"/><path class="st10" d="M123 96c-.6 0-1-.4-1-1V74c0-.6.4-1 1-1s1 .4 1 1v21c0 .6-.4 1-1 1zM123 69c-.6 0-1-.4-1-1v-9c0-.6.4-1 1-1s1 .4 1 1v9c0 .6-.4 1-1 1zM23 79c-.6 0-1-.4-1-1v-9c0-.6.4-1 1-1s1 .4 1 1v9c0 .6-.4 1-1 1zM35 79c-.6 0-1-.4-1-1v-9c0-.6.4-1 1-1s1 .4 1 1v9c0 .6-.4 1-1 1zM47 79c-.6 0-1-.4-1-1v-9c0-.6.4-1 1-1s1 .4 1 1v9c0 .6-.4 1-1 1zM59 79c-.6 0-1-.4-1-1v-9c0-.6.4-1 1-1s1 .4 1 1v9c0 .6-.4 1-1 1zM71 79c-.6 0-1-.4-1-1v-9c0-.6.4-1 1-1s1 .4 1 1v9c0 .6-.4 1-1 1zM83 79c-.6 0-1-.4-1-1v-9c0-.6.4-1 1-1s1 .4 1 1v9c0 .6-.4 1-1 1zM95 79c-.6 0-1-.4-1-1v-9c0-.6.4-1 1-1s1 .4 1 1v9c0 .6-.4 1-1 1zM106 79c-.6 0-1-.4-1-1v-9c0-.6.4-1 1-1s1 .4 1 1v9c0 .6-.4 1-1 1z"/><path d="M65 48h-7c-.6 0-1-.4-1-1s.4-1 1-1h7c.6 0 1 .4 1 1s-.4 1-1 1z" fill="#707d8e"/></svg>