<svg width="200" height="72" fill="none" xmlns="http://www.w3.org/2000/svg"><path d="M37.533 16.184l2.56-.064c1.366 0 2.774.235 4.224.704 1.494.47 2.582 1.216 3.264 2.24.939 1.408 1.408 2.645 1.408 3.712 0 2.944-1.344 5.653-4.032 8.128-1.706 1.579-3.498 2.73-5.376 3.456-2.73 1.024-5.952 1.536-9.664 1.536-.81 0-1.536-.043-2.176-.128-.341-.043-.277-.277.192-.704.47-.427.81-.619 1.024-.576.598.085 1.238.128 1.92.128.683 0 1.622-.064 2.816-.192 1.195-.17 2.518-.47 3.968-.896 1.494-.47 2.902-1.344 4.224-2.624 1.323-1.28 2.24-2.667 2.752-4.16.555-1.493.832-2.71.832-3.648 0-.981-.17-1.92-.512-2.816-.853-2.09-2.517-3.136-4.992-3.136-2.346 0-3.925.512-4.736 1.536-.81.981-1.642 2.197-2.496 3.648a100.373 100.373 0 0 0-2.048 3.712 153.077 153.077 0 0 0-2.176 4.224 541.03 541.03 0 0 1-1.6 3.264c-.213.427-.533 1.045-.96 1.856l-1.28 2.304a114.84 114.84 0 0 0-1.472 2.752 63.495 63.495 0 0 0-1.472 3.008 782.59 782.59 0 0 0-1.216 2.688c-.853 1.92-1.13 3.157-.832 3.712.17.384-.085.448-.768.192-.085 0-.213-.021-.384-.064a1.032 1.032 0 0 0-.448-.128c-.085-.043-.234-.064-.448-.064a1.879 1.879 0 0 0-.448-.064c-.47 0-1.258.341-2.368 1.024-1.578.981-2.645 1.472-3.2 1.472-.512 0-.768-.128-.768-.384 0-.085.043-.15.128-.192 1.75-.299 3.115-1.323 4.096-3.072a225.34 225.34 0 0 0 4.992-8.832c1.45-2.688 3.008-5.547 4.672-8.576 1.664-3.03 2.795-5.141 3.392-6.336.598-1.195 1.13-2.283 1.6-3.264.47-1.024.79-1.685.96-1.984.555-1.024 1.814-1.877 3.776-2.56-.64-.043-1.75-.064-3.328-.064-1.578 0-3.99.299-7.232.896-4.437.81-6.656 2.581-6.656 5.312 0 1.024.342 1.75 1.024 2.176.214.085.192.213-.064.384-.213.128-.448.128-.704 0-.213-.17-.597-.661-1.152-1.472-.853-1.323-1.28-2.496-1.28-3.52 0-2.645 2.475-4.139 7.424-4.48.81-.043 1.984-.064 3.52-.064l9.472-.064c.683.043 1.366.064 2.048.064zm19.777 31.04c-.81.896-1.941 1.792-3.392 2.688-1.408.853-2.71 1.28-3.904 1.28-1.152 0-1.728-.405-1.728-1.216 0-.768.214-1.621.64-2.56.299-.683 2.006-4.31 5.12-10.88a92.913 92.913 0 0 0-6.144 7.296c-.298.427-.448.384-.448-.128 0-.341.107-.64.32-.896 3.03-3.755 5.355-6.805 6.976-9.152 2.134-.299 3.414-.64 3.84-1.024.427-.384.662-.405.704-.064 0 .17-.106.384-.32.64-.17.213-1.898 3.413-5.184 9.6-1.45 2.73-2.176 4.608-2.176 5.632 0 .597.299.896.896.896 1.323 0 3.712-2.048 7.168-6.144l1.408-1.6c.512.512-.746 2.39-3.776 5.632zm3.584-20.672c-1.024 0-1.536-.555-1.536-1.664 0-.512.278-.96.832-1.344.598-.384 1.11-.576 1.536-.576.47 0 .832.192 1.088.576.256.341.384.619.384.832 0 .768-.277 1.323-.832 1.664-.554.341-1.045.512-1.472.512zm19.033 14.976c.085.085.128.256.128.512s-.299.79-.896 1.6c-3.798 5.035-7.318 7.552-10.56 7.552-1.024 0-1.536-.405-1.536-1.216 0-1.493.832-3.541 2.496-6.144-1.494 1.579-3.2 3.2-5.12 4.864-1.92 1.621-3.712 2.432-5.376 2.432-.768 0-1.152-.47-1.152-1.408 0-.213.021-.363.064-.448.298-2.432 1.28-4.992 2.944-7.68 3.328-5.376 6.784-8.064 10.368-8.064h7.36c.213 0 .32.085.32.256 0 .341-.192.512-.576.512-.598 0-1.344.704-2.24 2.112-.896 1.365-2.09 3.499-3.584 6.4-1.45 2.859-2.176 4.672-2.176 5.44 0 .725.298 1.088.896 1.088.981 0 2.346-.853 4.096-2.56.938-.981 1.642-1.75 2.112-2.304.47-.555.768-.917.896-1.088.17-.17.682-.79 1.536-1.856zm-6.848-5.952c0-.81-.555-1.216-1.664-1.216-1.067 0-2.262.619-3.584 1.856-1.323 1.237-2.774 3.243-4.352 6.016-1.536 2.73-2.304 4.715-2.304 5.952 0 .512.17.768.512.768 1.237 0 3.434-1.877 6.592-5.632 3.2-3.797 4.8-6.379 4.8-7.744zm25.02-1.152c0 .555-.362 1.344-1.088 2.368-.682 1.024-1.728 2.965-3.136 5.824-1.408 2.816-2.112 4.608-2.112 5.376 0 .725.299 1.088.896 1.088.64 0 1.45-.384 2.432-1.152a19.304 19.304 0 0 0 2.688-2.56c.81-.896 1.878-2.155 3.2-3.776.086.128.128.32.128.576 0 .256-.277.747-.832 1.472-2.176 2.944-4.01 4.992-5.504 6.144-1.493 1.152-2.837 1.728-4.032 1.728-1.365 0-2.048-.661-2.048-1.984 0-1.365.683-3.413 2.048-6.144 1.408-2.773 2.539-5.099 3.392-6.976.427-.896.128-1.067-.896-.512-4.864 3.03-8.64 8.107-11.328 15.232-.256 0-.768.128-1.536.384-.725.299-1.152.448-1.28.448-.17 0-.17-.213 0-.64.214-.384.576-1.216 1.088-2.496.555-1.28 1.216-2.901 1.984-4.864 1.494-3.755 2.496-6.23 3.008-7.424a92.913 92.913 0 0 0-6.144 7.296c-.298.427-.448.384-.448-.128 0-.341.107-.64.32-.896 3.03-3.755 5.355-6.805 6.976-9.152 2.134-.299 3.37-.597 3.712-.896.342-.299.555-.448.64-.448.086 0 .128.085.128.256.043.17-.085.427-.384.768-.256.299-1.92 3.307-4.992 9.024a36.482 36.482 0 0 1 7.168-7.104c1.75-1.28 3.179-1.92 4.288-1.92 1.11 0 1.664.363 1.664 1.088zm17.413 1.28c0 2.304-1.152 5.12-3.456 8.448-.896 1.195-1.706 2.133-2.432 2.816 2.816 0 5.419-1.579 7.808-4.736.214-.213.32-.128.32.256 0 .341-.085.619-.256.832-2.176 3.03-4.65 4.544-7.424 4.544-.384 0-.768-.021-1.152-.064-2.389 2.219-5.077 3.328-8.064 3.328-1.75 0-2.624-.747-2.624-2.24 0-2.432 1.174-5.27 3.52-8.512 1.494-2.133 3.307-3.819 5.44-5.056 2.262-1.408 4.182-2.112 5.76-2.112 1.707 0 2.56.832 2.56 2.496zm-3.072.064c0-1.024-.384-1.536-1.152-1.536-.256 0-.746.15-1.472.448-.725.256-1.642.96-2.752 2.112-1.066 1.11-2.09 2.539-3.072 4.288-1.834 3.03-2.752 5.29-2.752 6.784 0 1.45.384 2.176 1.152 2.176.598 0 1.259-.192 1.984-.576.726-.427 1.302-.853 1.728-1.28 1.323-1.408 2.71-3.307 4.16-5.696 1.451-2.432 2.176-4.672 2.176-6.72zm30.314-21.632a5.136 5.136 0 0 0-1.92-.384c-.64 0-1.259.064-1.856.192-2.219.47-4.48 2.816-6.784 7.04-.598 1.067-2.475 5.248-5.632 12.544h4.608c.853 0 1.472-.043 1.856-.128 0 .299-.32.576-.96.832-1.195.64-2.966.96-5.312.96h-.896c-2.518 6.315-4.224 10.453-5.12 12.416a78.878 78.878 0 0 1-2.56 5.056c-.811 1.45-1.835 2.987-3.072 4.608-1.195 1.621-2.411 3.008-3.648 4.16-1.28 1.152-2.752 2.112-4.416 2.88-1.664.768-3.35 1.152-5.056 1.152-3.542 0-5.696-1.067-6.464-3.2a2.87 2.87 0 0 1-.128-.768c0-.17.021-.384.064-.64l.128-.64c.042-.17.128-.448.256-.832.128-.384.213-.661.256-.832.042-.128.17-.427.384-.896.17-.47.298-.79.384-.96a.411.411 0 0 1 .32-.32c.128-.043.234 0 .32.128.085.128.042.405-.128.832-.214.47-.32 1.003-.32 1.6 0 .597.106 1.152.32 1.664.853 2.048 2.816 3.2 5.888 3.456h.576c1.152 0 2.261-.299 3.328-.896 2.901-1.493 5.674-4.715 8.32-9.664 1.28-2.39 2.688-5.675 4.224-9.856 1.536-4.224 2.581-7.04 3.136-8.448h-1.472c-.043 0-.512.064-1.408.192l-.128-.064c.085-.427.49-.832 1.216-1.216.725-.384 1.322-.576 1.792-.576h.768c4.48-10.41 8.576-16.853 12.288-19.328 2.176-1.536 4.586-2.304 7.232-2.304.554 0 1.066.17 1.536.512.469.341.682.81.64 1.408l-.192 2.304c0 .085-.064.15-.192.192-.128.043-.214.021-.256-.064-.171-1.024-.811-1.728-1.92-2.112zm1.321 21.568c0 2.304-1.152 5.12-3.456 8.448-.896 1.195-1.707 2.133-2.432 2.816 2.816 0 5.418-1.579 7.808-4.736.213-.213.32-.128.32.256 0 .341-.086.619-.256.832-2.176 3.03-4.651 4.544-7.424 4.544-.384 0-.768-.021-1.152-.064-2.39 2.219-5.078 3.328-8.064 3.328-1.75 0-2.624-.747-2.624-2.24 0-2.432 1.173-5.27 3.52-8.512 1.493-2.133 3.306-3.819 5.44-5.056 2.261-1.408 4.181-2.112 5.76-2.112 1.706 0 2.56.832 2.56 2.496zm-3.072.064c0-1.024-.384-1.536-1.152-1.536-.256 0-.747.15-1.472.448-.726.256-1.643.96-2.752 2.112-1.067 1.11-2.091 2.539-3.072 4.288-1.835 3.03-2.752 5.29-2.752 6.784 0 1.45.384 2.176 1.152 2.176.597 0 1.258-.192 1.984-.576.725-.427 1.301-.853 1.728-1.28 1.322-1.408 2.709-3.307 4.16-5.696 1.45-2.432 2.176-4.672 2.176-6.72zm20.969 2.56c0-1.963-.618-2.944-1.856-2.944-1.194 0-2.922 1.301-5.184 3.904-2.218 2.56-3.904 5.312-5.056 8.256l-1.344 3.584c-.256 0-.768.128-1.536.384s-1.173.384-1.216.384c-.213 0-.234-.192-.064-.576.214-.384.576-1.216 1.088-2.496.555-1.28 1.216-2.901 1.984-4.864 1.494-3.755 2.496-6.23 3.008-7.424a93.087 93.087 0 0 0-6.144 7.296c-.298.427-.448.384-.448-.128 0-.341.107-.64.32-.896 3.03-3.755 5.355-6.805 6.976-9.152 2.134-.299 3.371-.597 3.712-.896.342-.299.555-.448.64-.448.086 0 .128.085.128.256.043.17-.064.405-.32.704-.256.299-1.685 2.837-4.288 7.616 1.152-1.75 2.603-3.477 4.352-5.184 1.792-1.707 3.307-2.56 4.544-2.56 1.28 0 2.112.533 2.496 1.6a1.1 1.1 0 0 1 .256.704c0 .256-.042.597-.128 1.024-.085.384-.17.704-.256.96-.469 1.067-.81 1.707-1.024 1.92-.128.213-.341.341-.64.384l-.128-.128c.086-.47.128-.896.128-1.28zm6.046-4.864l1.984.064c1.664-2.261 3.328-5.227 4.992-8.896.384-.043.981-.277 1.792-.704.81-.47 1.386-.875 1.728-1.216.384-.384.618-.576.704-.576.128 0 .192.064.192.192 0 .085-.171.32-.512.704-.342.384-1.195 1.664-2.56 3.84a71.25 71.25 0 0 0-3.648 6.656h5.184c.426 0 .661.064.704.192.042.128-.107.256-.448.384l-.896.256c-.256.085-.854.17-1.792.256-2.091.128-3.392.555-3.904 1.28-.47.683-1.302 2.475-2.496 5.376-2.219 5.376-2.56 8.064-1.024 8.064 1.322 0 3.754-2.048 7.296-6.144l1.216-1.536c.085.128.128.341.128.64 0 .256-.235.704-.704 1.344-3.926 5.035-7.467 7.552-10.624 7.552-1.024 0-1.536-.405-1.536-1.216 0-1.024.832-3.2 2.496-6.528l3.456-7.744c-4.352 5.29-6.571 8-6.656 8.128-.299.427-.448.384-.448-.128 0-.341.106-.64.32-.896 2.901-3.627 4.906-6.165 6.016-7.616-.384 0-1.536.107-3.456.32-.427 0-.278-.341.448-1.024.768-.683 1.301-1.024 1.6-1.024h.448zm10.639 9.92c-.64 1.664-.96 3.221-.96 4.672 0 1.408.875 2.112 2.624 2.112.64 0 1.472-.192 2.496-.576 1.664-.555 3.392-1.621 5.184-3.2 1.792-1.579 3.264-3.115 4.416-4.608a.692.692 0 0 1 .192.512c0 .213-.149.533-.448.96-1.578 2.176-3.541 4.096-5.888 5.76-2.346 1.664-4.736 2.496-7.168 2.496-3.157 0-4.736-1.152-4.736-3.456 0-1.835.982-4.373 2.944-7.616 1.11-1.75 2.688-3.37 4.736-4.864 2.048-1.536 4.011-2.304 5.888-2.304 1.878 0 2.816.896 2.816 2.688 0 1.877-.746 3.307-2.24 4.288-1.45.939-3.114 1.707-4.992 2.304-1.834.555-3.456.832-4.864.832zm.512-1.28h1.408c.726 0 1.579-.15 2.56-.448 2.432-.725 4.011-2.09 4.736-4.096.214-.597.32-1.152.32-1.664 0-.555-.17-.939-.512-1.152-.341-.256-.64-.384-.896-.384-2.773.043-5.312 2.624-7.616 7.744z" fill="#000"/></svg>